<?xml version="1.0" standalone="no"?>
<!DOCTYPE svg PUBLIC "-//W3C//DTD SVG 20010904//EN"
 "http://www.w3.org/TR/2001/REC-SVG-20010904/DTD/svg10.dtd">
<svg version="1.0" xmlns="http://www.w3.org/2000/svg"
 width="578.000000pt" height="476.000000pt" viewBox="0 0 578.000000 476.000000"
 preserveAspectRatio="xMidYMid meet">

<g transform="translate(0.000000,476.000000) scale(0.100000,-0.100000)"
fill="#000000" stroke="none">
<path d="M3252 4685 c-7 -14 -12 -36 -11 -48 1 -14 6 -5 15 22 16 50 13 64 -4
26z"/>
<path d="M2445 4631 c-49 -22 -103 -74 -120 -116 -20 -46 -28 -117 -16 -145
10 -25 10 -25 10 7 1 29 4 32 39 36 l37 4 -37 1 c-34 2 -38 5 -38 27 0 14 12
49 26 76 24 48 27 51 56 45 41 -8 42 -10 29 -47 -13 -39 -15 -82 -2 -59 5 8
11 32 15 53 6 33 10 37 36 37 44 0 60 -10 61 -39 l2 -26 4 25 c6 31 19 40 60
40 28 0 34 -5 43 -32 l10 -33 -4 36 c-4 32 -1 38 22 49 22 10 28 9 39 -6 7
-10 16 -15 19 -11 10 10 -43 57 -89 77 -55 25 -148 26 -202 1z m95 -31 l0 -40
-40 0 c-22 0 -40 3 -40 7 0 3 11 21 26 40 35 46 54 43 54 -7z m64 9 c35 -41
33 -49 -14 -49 l-40 0 0 40 c0 49 18 52 54 9z m-139 -9 c-9 -16 -17 -30 -19
-30 -13 0 -36 13 -36 21 0 7 42 31 68 38 1 1 -4 -12 -13 -29z m215 -7 c5 -4
-20 -23 -32 -23 -4 0 -15 14 -23 31 l-16 30 33 -17 c18 -9 35 -18 38 -21z"/>
<path d="M3698 4571 c-21 -25 -38 -53 -38 -62 0 -34 -27 -42 -123 -37 l-92 5
55 -13 c30 -7 70 -11 88 -8 19 4 32 2 32 -4 0 -10 -192 -326 -209 -344 -4 -4
-42 6 -86 23 -44 17 -101 36 -127 41 -27 6 -48 14 -48 19 0 5 14 72 30 150 32
147 35 201 6 82 -9 -37 -26 -103 -38 -147 l-21 -79 -66 8 c-106 11 -112 12
-203 13 l-88 2 0 126 0 125 -40 -33 -40 -33 0 -106 0 -106 -97 -18 c-54 -9
-110 -23 -125 -31 -14 -8 -35 -14 -46 -14 -28 0 -132 -41 -132 -52 0 -4 -32
-29 -72 -55 -39 -25 -107 -75 -150 -110 -43 -34 -82 -63 -86 -63 -4 0 -16 -16
-26 -35 -11 -19 -44 -59 -75 -89 -69 -66 -83 -84 -77 -94 5 -8 -95 -213 -117
-240 -6 -7 -21 -48 -33 -90 -13 -42 -23 -70 -23 -60 -1 9 8 44 18 77 17 56 17
61 2 61 -9 0 -21 -4 -27 -8 -7 -4 -24 -98 -39 -209 -23 -164 -25 -205 -15
-218 23 -28 30 -15 32 58 1 44 4 17 8 -73 9 -174 21 -253 48 -300 11 -19 22
-55 24 -80 6 -64 102 -251 156 -307 42 -42 44 -46 40 -93 -5 -54 1 -60 59 -65
39 -2 84 -30 90 -56 3 -10 13 -19 23 -19 10 0 31 -15 48 -34 16 -19 39 -37 50
-40 28 -9 35 -35 18 -61 -13 -19 -13 -25 -2 -34 11 -9 15 -5 20 19 l6 31 37
-20 c21 -11 56 -24 78 -30 22 -6 51 -20 65 -31 l25 -19 -23 -43 c-12 -24 -37
-54 -55 -66 -25 -18 -27 -22 -9 -17 17 5 22 2 23 -12 0 -15 2 -14 11 4 19 39
48 23 48 -26 0 -14 -6 -17 -32 -13 -32 5 -43 11 -77 45 -14 14 -23 16 -45 8
-14 -6 -26 -17 -26 -25 0 -9 -9 -20 -21 -26 -33 -18 -52 -75 -39 -114 10 -31
43 -56 74 -56 8 0 19 -14 25 -30 23 -68 128 -57 143 15 2 11 10 19 18 17 23
-5 58 19 70 49 9 21 9 36 0 63 -11 35 -26 46 -62 46 -20 0 -21 4 -15 72 3 39
10 74 14 78 4 4 22 10 38 14 20 4 25 3 16 -3 -10 -6 -5 -11 20 -17 19 -5 39
-9 44 -9 6 0 15 -3 20 -6 19 -12 110 -29 205 -39 116 -12 208 -2 383 39 71 17
133 31 138 31 6 0 7 -9 4 -21 -4 -11 3 -65 15 -119 l23 -98 35 5 c33 6 35 4
29 -16 -7 -30 11 -79 33 -91 30 -16 76 -11 94 9 15 16 23 18 47 9 69 -24 119
40 89 113 -10 23 -10 33 -1 42 31 31 -10 117 -56 117 -10 0 -45 -22 -79 -49
-52 -42 -67 -49 -112 -52 l-53 -4 -10 40 c-5 22 -14 53 -19 69 -14 41 -13 46
9 46 11 0 21 6 24 13 5 16 47 -97 47 -130 0 -21 2 -23 15 -13 8 6 20 8 27 4
10 -5 11 -4 1 7 -21 22 -16 59 7 59 11 0 23 -7 26 -15 4 -8 11 -15 17 -15 6 0
-9 21 -35 48 -25 26 -51 56 -56 68 -10 18 -8 23 14 33 14 6 29 11 34 11 4 0
44 24 88 52 164 109 315 267 411 427 24 42 53 86 64 98 10 12 16 26 13 32 -8
12 20 71 33 71 5 0 39 -11 76 -25 37 -14 72 -24 78 -22 8 2 82 279 101 380 8
40 21 33 -127 71 -33 8 -60 16 -62 18 -1 2 -5 51 -8 110 -5 112 -3 118 41 118
38 0 93 22 103 42 11 21 10 21 -50 15 -34 -4 -72 -9 -85 -13 -22 -5 -24 -2
-28 51 -3 36 -12 66 -26 85 -12 16 -22 43 -22 60 0 37 -40 119 -75 154 -14 14
-25 33 -25 42 0 23 -46 101 -68 114 -16 9 -16 11 3 26 34 28 83 44 129 44 36
0 50 -5 69 -26 32 -35 71 -30 75 9 3 26 5 27 43 21 33 -6 44 -3 64 16 46 43
42 130 -6 145 -15 5 -16 11 -8 32 32 85 -71 160 -142 104 -22 -17 -27 -17 -44
-5 -22 16 -53 18 -75 4 -11 -7 -9 -11 11 -19 51 -19 52 -71 3 -117 -19 -19
-32 -34 -27 -34 12 0 69 -72 77 -98 6 -18 4 -22 -13 -22 -23 0 -28 19 -9 38
17 17 2 15 -28 -4 -36 -24 -53 -6 -36 38 16 43 9 46 -16 6 -12 -18 -38 -50
-59 -71 l-39 -37 -39 40 c-21 22 -44 40 -50 40 -15 0 -47 35 -39 43 3 3 -10
12 -29 21 -20 8 -42 27 -51 45 -10 19 -28 33 -49 39 -17 5 -47 23 -65 40 -18
17 -45 33 -61 37 l-28 6 26 48 c59 110 163 291 166 291 3 0 14 -22 26 -49 24
-57 53 -89 64 -71 4 7 -9 45 -29 85 -40 80 -39 91 6 143 25 29 46 78 37 86 -2
2 -21 -17 -41 -43z m-1168 -516 c6 -8 8 -20 4 -26 -5 -9 -1 -10 17 -5 108 34
311 57 323 37 4 -6 29 -11 55 -11 119 0 295 -46 426 -113 182 -91 320 -215
432 -388 217 -337 227 -789 25 -1138 -52 -90 -151 -220 -167 -221 -12 0 -103
-90 -92 -90 4 0 29 19 55 42 26 24 36 30 22 14 -29 -32 -112 -99 -91 -73 7 9
9 17 3 17 -13 0 -33 -25 -26 -32 5 -6 -59 -53 -103 -77 -45 -23 -22 -3 38 34
33 20 58 39 55 42 -2 3 -24 -8 -48 -25 -125 -85 -322 -156 -479 -171 -167 -16
-267 -20 -244 -10 14 7 10 8 -17 4 -50 -8 -115 4 -96 17 9 7 4 8 -15 4 -45
-10 -201 50 -339 130 -46 27 -158 120 -158 132 0 6 -6 12 -14 12 -15 0 -146
148 -146 166 0 6 -7 17 -16 25 -20 16 -96 167 -90 178 3 4 -6 42 -20 85 -69
219 -72 447 -7 665 14 47 25 95 25 106 -1 27 80 177 99 182 8 3 23 16 31 31 9
15 41 55 72 89 31 33 56 67 56 75 0 15 108 101 166 132 21 12 41 24 44 28 6 7
157 79 193 92 17 5 17 7 3 22 -16 15 -14 34 3 34 5 0 14 -7 21 -15z m-903
-872 c-3 -10 -5 -4 -5 12 0 17 2 24 5 18 2 -7 2 -21 0 -30z m-10 -75 c-2 -13
-4 -5 -4 17 -1 22 1 32 4 23 2 -10 2 -28 0 -40z m2611 -229 c60 -15 64 -19 56
-56 -6 -30 -7 -30 -47 -22 -89 19 -87 18 -87 48 0 45 6 47 78 30z m-37 -134
c64 -9 72 -17 64 -54 -8 -35 -6 -35 -91 -19 -41 7 -64 16 -64 25 0 14 26 11
78 -8 35 -13 62 -11 62 6 0 13 -17 20 -102 41 -16 3 -28 10 -28 16 0 5 8 7 18
4 9 -3 38 -8 63 -11z m-26 -138 c44 -12 50 -17 53 -41 2 -16 0 -32 -5 -37 -14
-14 -134 23 -128 39 3 8 5 22 5 33 0 22 8 23 75 6z m-855 -667 c-8 -5 -19 -10
-25 -10 -5 0 -3 5 5 10 8 5 20 10 25 10 6 0 3 -5 -5 -10z m-135 -50 c-11 -5
-27 -9 -35 -9 -9 0 -8 4 5 9 11 5 27 9 35 9 9 0 8 -4 -5 -9z"/>
<path d="M2556 3864 c-5 -12 -10 -14 -19 -5 -10 8 -17 7 -25 -1 -9 -9 -12 -9
-12 2 0 11 -3 11 -12 2 -7 -7 -22 -12 -34 -12 -13 0 -29 -6 -37 -14 -8 -8 -36
-16 -63 -18 -53 -3 -46 4 -95 -100 -5 -9 -5 -18 -1 -21 4 -2 2 -3 -4 -1 -18 4
-33 -17 -26 -35 5 -13 3 -14 -9 -4 -11 9 -22 6 -52 -17 -39 -29 -97 -96 -97
-112 0 -5 -7 -17 -16 -26 -12 -12 -15 -27 -10 -60 3 -25 6 -80 6 -123 0 -64 3
-79 15 -79 9 0 15 -9 15 -24 0 -14 9 -31 20 -39 10 -7 23 -25 29 -39 5 -14 40
-49 78 -77 l68 -52 105 3 c100 3 105 4 104 25 0 20 4 21 67 20 66 -1 67 -2 73
-29 7 -33 31 -46 57 -30 23 15 48 5 59 -22 l9 -21 0 22 c1 13 -13 33 -36 52
-29 24 -33 31 -20 36 21 9 31 2 110 -81 59 -62 67 -75 67 -109 l0 -37 -44 36
c-24 20 -49 36 -55 36 -6 0 -11 10 -12 23 -1 30 -29 -60 -29 -93 0 -31 17 -51
36 -43 8 3 17 -3 20 -13 4 -11 13 -26 20 -34 7 -8 20 -51 29 -96 15 -75 15
-84 -1 -125 -31 -83 -29 -99 19 -211 25 -57 49 -117 53 -133 10 -44 93 -203
108 -208 27 -11 136 6 172 27 47 26 112 109 120 154 4 22 15 37 35 48 16 8 29
20 29 28 0 7 9 21 20 31 16 14 19 26 14 55 -8 50 6 73 71 115 51 32 55 38 55
73 0 21 -7 65 -16 97 -20 75 -19 130 3 165 27 41 88 106 106 113 10 4 17 13
17 22 0 8 3 14 8 14 20 -3 32 2 32 16 0 8 5 15 10 15 12 0 100 175 100 198 0
12 -10 13 -46 8 -26 -3 -57 -6 -70 -6 -15 0 -24 -6 -24 -15 0 -18 -16 -20 -23
-2 -4 9 -8 8 -16 -3 -9 -13 -11 -11 -11 7 0 23 -57 93 -76 93 -6 0 -11 8 -10
18 1 11 -5 16 -17 14 -11 -2 -17 2 -15 10 1 7 -1 25 -5 40 -5 20 -12 26 -24
21 -12 -5 -15 -2 -10 10 8 22 -11 87 -29 94 -8 3 -13 12 -10 20 3 8 -3 17 -16
22 -13 5 -17 10 -11 14 17 11 -7 66 -25 59 -10 -3 -13 0 -10 9 3 8 1 25 -4 38
-5 15 -4 28 3 38 9 10 9 20 0 39 -9 21 -17 25 -36 21 -14 -2 -25 0 -25 4 0 5
-7 9 -15 9 -8 0 -15 -4 -15 -8 0 -5 -27 -8 -60 -8 -33 0 -60 3 -60 7 0 5 -17
11 -37 15 -21 4 -43 11 -50 16 -7 5 -18 6 -24 2 -8 -4 -9 -3 -5 4 5 8 0 12
-13 12 -14 0 -19 -5 -15 -15 4 -8 1 -15 -5 -15 -6 0 -11 6 -11 13 -1 6 -8 -4
-16 -23 -13 -29 -17 -32 -25 -19 -9 17 -53 34 -76 30 -7 -1 -13 5 -13 12 0 17
-21 27 -55 27 -12 0 -26 7 -29 16 -3 8 -10 13 -15 9 -5 -3 -12 -1 -16 5 -3 5
0 10 8 10 15 0 28 44 20 67 -7 17 -50 17 -56 1 -4 -10 -6 -10 -6 0 -1 15 -71
16 -71 1 0 -8 -5 -8 -15 1 -12 10 -15 10 -15 0 0 -9 -3 -10 -14 -1 -11 9 -15
8 -20 -5z m-36 -34 c0 -5 -5 -10 -11 -10 -5 0 -7 5 -4 10 3 6 8 10 11 10 2 0
4 -4 4 -10z m145 0 c3 -5 1 -10 -4 -10 -6 0 -11 5 -11 10 0 6 2 10 4 10 3 0 8
-4 11 -10z m75 0 c0 -5 -4 -10 -10 -10 -5 0 -10 5 -10 10 0 6 5 10 10 10 6 0
10 -4 10 -10z m-70 -40 c0 -5 -4 -10 -10 -10 -5 0 -10 5 -10 10 0 6 5 10 10
10 6 0 10 -4 10 -10z m-40 -24 c0 -3 -4 -8 -10 -11 -5 -3 -10 -1 -10 4 0 6 5
11 10 11 6 0 10 -2 10 -4z m80 -6 c0 -5 -4 -10 -10 -10 -5 0 -10 5 -10 10 0 6
5 10 10 10 6 0 10 -4 10 -10z m-410 -30 c0 -5 -5 -10 -11 -10 -5 0 -7 5 -4 10
3 6 8 10 11 10 2 0 4 -4 4 -10z m110 0 c0 -5 -5 -10 -11 -10 -5 0 -7 5 -4 10
3 6 8 10 11 10 2 0 4 -4 4 -10z m40 0 c0 -5 -4 -10 -10 -10 -5 0 -10 5 -10 10
0 6 5 10 10 10 6 0 10 -4 10 -10z m255 0 c3 -5 1 -10 -4 -10 -6 0 -11 5 -11
10 0 6 2 10 4 10 3 0 8 -4 11 -10z m37 -25 c-6 -34 -12 -32 -12 6 0 16 4 28 9
25 4 -3 6 -17 3 -31z m43 25 c3 -5 -1 -10 -10 -10 -9 0 -13 5 -10 10 3 6 8 10
10 10 2 0 7 -4 10 -10z m35 0 c0 -5 -5 -10 -11 -10 -5 0 -7 5 -4 10 3 6 8 10
11 10 2 0 4 -4 4 -10z m-480 -10 c0 -5 -4 -10 -10 -10 -5 0 -10 5 -10 10 0 6
5 10 10 10 6 0 10 -4 10 -10z m445 -19 c3 -5 1 -12 -5 -16 -5 -3 -10 1 -10 9
0 18 6 21 15 7z m272 -13 c-3 -8 -6 -5 -6 6 -1 11 2 17 5 13 3 -3 4 -12 1 -19z
m-677 8 c0 -3 -4 -8 -10 -11 -5 -3 -10 -1 -10 4 0 6 5 11 10 11 6 0 10 -2 10
-4z m290 0 c0 -3 -4 -8 -10 -11 -5 -3 -10 -1 -10 4 0 6 5 11 10 11 6 0 10 -2
10 -4z m-400 -30 c0 -3 -4 -8 -10 -11 -5 -3 -10 -1 -10 4 0 6 5 11 10 11 6 0
10 -2 10 -4z m180 0 c0 -3 -4 -8 -10 -11 -5 -3 -10 -1 -10 4 0 6 5 11 10 11 6
0 10 -2 10 -4z m70 -6 c0 -5 -5 -10 -11 -10 -5 0 -7 5 -4 10 3 6 8 10 11 10 2
0 4 -4 4 -10z m40 6 c0 -3 -4 -8 -10 -11 -5 -3 -10 -1 -10 4 0 6 5 11 10 11 6
0 10 -2 10 -4z m70 0 c0 -3 -4 -8 -10 -11 -5 -3 -10 -1 -10 4 0 6 5 11 10 11
6 0 10 -2 10 -4z m40 0 c0 -3 -4 -8 -10 -11 -5 -3 -10 -1 -10 4 0 6 5 11 10
11 6 0 10 -2 10 -4z m40 -6 c0 -5 -4 -10 -9 -10 -6 0 -13 5 -16 10 -3 6 1 10
9 10 9 0 16 -4 16 -10z m40 0 c0 -5 -4 -10 -10 -10 -5 0 -10 5 -10 10 0 6 5
10 10 10 6 0 10 -4 10 -10z m40 0 c0 -5 -4 -10 -10 -10 -5 0 -10 5 -10 10 0 6
5 10 10 10 6 0 10 -4 10 -10z m40 0 c0 -5 -4 -10 -10 -10 -5 0 -10 5 -10 10 0
6 5 10 10 10 6 0 10 -4 10 -10z m40 6 c0 -3 -4 -8 -10 -11 -5 -3 -10 -1 -10 4
0 6 5 11 10 11 6 0 10 -2 10 -4z m40 -6 c0 -5 -4 -10 -10 -10 -5 0 -10 5 -10
10 0 6 5 10 10 10 6 0 10 -4 10 -10z m80 6 c0 -11 -19 -15 -25 -6 -3 5 1 10 9
10 9 0 16 -2 16 -4z m190 -6 c0 -5 -2 -10 -4 -10 -3 0 -8 5 -11 10 -3 6 -1 10
4 10 6 0 11 -4 11 -10z m-660 -36 c0 -8 -5 -12 -10 -9 -6 4 -8 11 -5 16 9 14
15 11 15 -7z m425 7 c3 -5 1 -12 -5 -16 -5 -3 -10 1 -10 9 0 18 6 21 15 7z
m262 -13 c-3 -8 -6 -5 -6 6 -1 11 2 17 5 13 3 -3 4 -12 1 -19z m113 12 c0 -5
-5 -10 -11 -10 -5 0 -7 5 -4 10 3 6 8 10 11 10 2 0 4 -4 4 -10z m-940 -4 c0
-3 -4 -8 -10 -11 -5 -3 -10 -1 -10 4 0 6 5 11 10 11 6 0 10 -2 10 -4z m70 -6
c0 -5 -2 -10 -4 -10 -3 0 -8 5 -11 10 -3 6 -1 10 4 10 6 0 11 -4 11 -10z m220
0 c0 -5 -4 -10 -10 -10 -5 0 -10 5 -10 10 0 6 5 10 10 10 6 0 10 -4 10 -10z
m40 0 c0 -5 -2 -10 -4 -10 -3 0 -8 5 -11 10 -3 6 -1 10 4 10 6 0 11 -4 11 -10z
m40 6 c0 -3 -4 -8 -10 -11 -5 -3 -10 -1 -10 4 0 6 5 11 10 11 6 0 10 -2 10 -4z
m40 -6 c0 -5 -4 -10 -10 -10 -5 0 -10 5 -10 10 0 6 5 10 10 10 6 0 10 -4 10
-10z m40 0 c0 -5 -2 -10 -4 -10 -3 0 -8 5 -11 10 -3 6 -1 10 4 10 6 0 11 -4
11 -10z m40 6 c0 -3 -4 -8 -10 -11 -5 -3 -10 -1 -10 4 0 6 5 11 10 11 6 0 10
-2 10 -4z m150 -6 c0 -5 -2 -10 -4 -10 -3 0 -8 5 -11 10 -3 6 -1 10 4 10 6 0
11 -4 11 -10z m80 0 c0 -5 -2 -10 -4 -10 -3 0 -8 5 -11 10 -3 6 -1 10 4 10 6
0 11 -4 11 -10z m40 0 c0 -5 -4 -10 -10 -10 -5 0 -10 5 -10 10 0 6 5 10 10 10
6 0 10 -4 10 -10z m40 0 c0 -5 -4 -10 -10 -10 -5 0 -10 5 -10 10 0 6 5 10 10
10 6 0 10 -4 10 -10z m-580 -31 c0 -5 -4 -9 -10 -9 -5 0 -10 7 -10 16 0 8 5
12 10 9 6 -3 10 -10 10 -16z m-150 7 c0 -3 -4 -8 -10 -11 -5 -3 -10 -1 -10 4
0 6 5 11 10 11 6 0 10 -2 10 -4z m70 -6 c0 -5 -4 -10 -10 -10 -5 0 -10 5 -10
10 0 6 5 10 10 10 6 0 10 -4 10 -10z m40 6 c0 -3 -4 -8 -10 -11 -5 -3 -10 -1
-10 4 0 6 5 11 10 11 6 0 10 -2 10 -4z m110 -6 c0 -5 -2 -10 -4 -10 -3 0 -8 5
-11 10 -3 6 -1 10 4 10 6 0 11 -4 11 -10z m40 0 c0 -5 -4 -10 -10 -10 -5 0
-10 5 -10 10 0 6 5 10 10 10 6 0 10 -4 10 -10z m40 6 c0 -3 -4 -8 -10 -11 -5
-3 -10 -1 -10 4 0 6 5 11 10 11 6 0 10 -2 10 -4z m40 -6 c0 -5 -4 -10 -10 -10
-5 0 -10 5 -10 10 0 6 5 10 10 10 6 0 10 -4 10 -10z m40 0 c0 -5 -4 -10 -10
-10 -5 0 -10 5 -10 10 0 6 5 10 10 10 6 0 10 -4 10 -10z m40 0 c0 -5 -4 -10
-10 -10 -5 0 -10 5 -10 10 0 6 5 10 10 10 6 0 10 -4 10 -10z m40 0 c0 -5 -2
-10 -4 -10 -3 0 -8 5 -11 10 -3 6 -1 10 4 10 6 0 11 -4 11 -10z m80 6 c0 -3
-4 -8 -10 -11 -5 -3 -10 -1 -10 4 0 6 5 11 10 11 6 0 10 -2 10 -4z m190 -6 c0
-5 -4 -10 -10 -10 -5 0 -10 5 -10 10 0 6 5 10 10 10 6 0 10 -4 10 -10z m-730
-30 c0 -5 -4 -10 -10 -10 -5 0 -10 5 -10 10 0 6 5 10 10 10 6 0 10 -4 10 -10z
m154 -38 c6 -8 28 -33 49 -55 36 -38 37 -41 37 -115 l0 -77 -32 34 -33 33 23
15 c26 18 29 45 6 64 -12 10 -20 10 -35 1 -24 -15 -35 -10 -54 29 -14 26 -14
32 0 59 8 16 15 33 14 37 -3 19 4 26 8 9 3 -10 10 -26 17 -34z m31 39 c3 -5 1
-12 -5 -16 -5 -3 -10 1 -10 9 0 18 6 21 15 7z m75 1 c0 -4 -8 -24 -19 -45 -18
-36 -19 -36 -37 -16 -17 19 -18 21 -1 30 9 6 17 17 17 24 0 8 9 15 20 15 11 0
20 -4 20 -8z m40 -1 c0 -6 -4 -13 -10 -16 -5 -3 -10 1 -10 9 0 9 5 16 10 16 6
0 10 -4 10 -9z m40 -7 c0 -8 -4 -12 -10 -9 -5 3 -10 10 -10 16 0 5 5 9 10 9 6
0 10 -7 10 -16z m40 1 c0 -8 -4 -15 -10 -15 -5 0 -10 7 -10 15 0 8 5 15 10 15
6 0 10 -7 10 -15z m35 5 c3 -5 1 -10 -4 -10 -6 0 -11 5 -11 10 0 6 2 10 4 10
3 0 8 -4 11 -10z m40 0 c3 -5 1 -10 -4 -10 -6 0 -11 5 -11 10 0 6 2 10 4 10 3
0 8 -4 11 -10z m40 0 c3 -5 1 -10 -4 -10 -6 0 -11 5 -11 10 0 6 2 10 4 10 3 0
8 -4 11 -10z m35 0 c0 -5 -4 -10 -10 -10 -5 0 -10 5 -10 10 0 6 5 10 10 10 6
0 10 -4 10 -10z m41 -3 c-1 -12 -15 -9 -19 4 -3 6 1 10 8 8 6 -3 11 -8 11 -12z
m36 -7 c-3 -10 0 -21 7 -23 6 -2 9 -7 6 -10 -12 -13 -29 10 -23 31 3 12 8 22
10 22 3 0 3 -9 0 -20z m120 -2 c-3 -8 -6 -5 -6 6 -1 11 2 17 5 13 3 -3 4 -12
1 -19z m38 12 c3 -5 1 -10 -4 -10 -6 0 -11 5 -11 10 0 6 2 10 4 10 3 0 8 -4
11 -10z m75 0 c0 -5 -5 -10 -11 -10 -5 0 -7 5 -4 10 3 6 8 10 11 10 2 0 4 -4
4 -10z m-883 -42 c-3 -8 -6 -5 -6 6 -1 11 2 17 5 13 3 -3 4 -12 1 -19z m53 8
c0 -11 -19 -15 -25 -6 -3 5 1 10 9 10 9 0 16 -2 16 -4z m30 -11 c0 -9 7 -18
15 -21 21 -9 19 -23 -4 -21 -13 1 -21 10 -23 29 -3 15 -1 28 4 28 4 0 8 -7 8
-15z m50 11 c0 -3 -4 -8 -10 -11 -5 -3 -10 -1 -10 4 0 6 5 11 10 11 6 0 10 -2
10 -4z m240 -16 c-11 -11 -20 -24 -20 -29 0 -4 34 -44 75 -87 l75 -79 0 -119
0 -120 -30 29 c-25 24 -30 36 -30 77 0 27 5 57 11 67 7 10 9 30 5 44 -5 22
-12 27 -36 27 -19 0 -30 5 -30 14 0 7 -9 16 -21 19 -16 4 -19 10 -14 27 5 16
3 21 -6 18 -23 -8 -22 -39 3 -65 14 -15 22 -34 20 -48 -2 -15 6 -32 24 -48 23
-21 26 -30 18 -47 -9 -21 -11 -20 -52 24 l-42 46 0 99 c0 56 4 103 10 106 6 3
10 19 10 36 0 24 4 29 25 29 l25 0 -20 -20z m86 -12 c0 -18 4 -33 9 -33 6 0 9
6 9 13 -1 6 8 12 19 12 16 0 18 -3 9 -12 -7 -7 -12 -21 -12 -31 0 -13 -5 -17
-15 -14 -8 4 -17 2 -20 -3 -3 -5 5 -10 17 -12 17 -2 24 -11 26 -33 l3 -30 -33
33 c-29 29 -33 38 -33 87 0 34 4 55 11 55 6 0 11 -14 10 -32z m44 28 c0 -3 -4
-8 -10 -11 -5 -3 -10 -1 -10 4 0 6 5 11 10 11 6 0 10 -2 10 -4z m40 0 c0 -3
-4 -8 -10 -11 -5 -3 -10 -1 -10 4 0 6 5 11 10 11 6 0 10 -2 10 -4z m36 -15
c-10 -11 -14 -25 -9 -37 6 -17 5 -17 -10 -5 -13 10 -14 17 -6 27 6 7 8 18 4
24 -3 6 3 10 16 10 21 0 21 -1 5 -19z m205 7 c0 -10 2 -10 6 0 2 6 14 12 25
12 14 0 18 -5 14 -16 -8 -21 4 -41 14 -24 5 8 10 8 14 2 3 -5 -1 -15 -8 -22
-12 -9 -17 -7 -26 9 -6 12 -16 21 -23 21 -7 0 -21 7 -31 15 -17 13 -18 15 -3
15 9 0 17 -6 18 -12z m-464 -34 c-9 -9 -28 6 -21 18 4 6 10 6 17 -1 6 -6 8
-13 4 -17z m428 -45 c7 -57 6 -62 -21 -90 -35 -37 -44 -37 -44 2 0 25 3 30 17
25 23 -9 32 11 22 48 -5 17 -5 32 0 34 4 1 6 14 3 29 -3 17 -1 24 6 20 5 -4
13 -34 17 -68z m-818 39 c-3 -8 -6 -5 -6 6 -1 11 2 17 5 13 3 -3 4 -12 1 -19z
m83 7 c0 -8 -4 -15 -10 -15 -5 0 -10 7 -10 15 0 8 5 15 10 15 6 0 10 -7 10
-15z m407 -1 c8 -21 -13 -42 -28 -27 -13 13 -5 43 11 43 6 0 13 -7 17 -16z
m210 0 c9 -23 -11 -38 -26 -20 -13 16 -7 36 10 36 5 0 12 -7 16 -16z m73 6 c0
-5 -7 -10 -15 -10 -8 0 -15 -4 -15 -10 0 -5 7 -10 15 -10 8 0 15 -4 15 -10 0
-5 -9 -10 -20 -10 -22 0 -23 -9 -20 -170 1 -53 -3 -81 -14 -95 -15 -19 -15
-18 -16 22 0 23 5 54 10 69 13 34 -3 56 -39 52 -20 -2 -27 -9 -29 -29 -2 -14
4 -31 12 -39 24 -19 21 -105 -5 -141 -11 -16 -25 -29 -30 -29 -5 0 -9 52 -9
118 l0 119 45 41 c25 22 45 50 45 60 0 11 7 25 15 32 8 7 15 18 15 25 0 12 14
22 33 24 4 1 7 -3 7 -9z m210 1 c0 -6 -4 -13 -10 -16 -5 -3 -10 1 -10 9 0 9 5
16 10 16 6 0 10 -4 10 -9z m31 -14 c-13 -13 -26 -3 -16 12 3 6 11 8 17 5 6 -4
6 -10 -1 -17z m-971 3 c0 -5 -4 -10 -10 -10 -5 0 -10 5 -10 10 0 6 5 10 10 10
6 0 10 -4 10 -10z m75 0 c3 -5 2 -10 -4 -10 -5 0 -13 5 -16 10 -3 6 -2 10 4
10 5 0 13 -4 16 -10z m760 -30 c0 -8 -8 -16 -17 -18 -13 -2 -18 3 -18 18 0 15
5 20 18 18 9 -2 17 -10 17 -18z m-905 0 c0 -5 -4 -10 -10 -10 -5 0 -10 5 -10
10 0 6 5 10 10 10 6 0 10 -4 10 -10z m70 1 c0 -6 -4 -13 -10 -16 -5 -3 -10 1
-10 9 0 9 5 16 10 16 6 0 10 -4 10 -9z m40 -1 c0 -5 -4 -10 -10 -10 -5 0 -10
5 -10 10 0 6 5 10 10 10 6 0 10 -4 10 -10z m534 2 c8 -13 -11 -35 -23 -28 -16
10 -14 36 3 36 8 0 17 -4 20 -8z m358 -15 c-2 -13 2 -17 15 -15 16 3 18 -3 15
-44 -3 -30 0 -48 7 -48 6 0 11 5 11 10 0 6 5 10 10 10 6 0 10 -9 10 -20 0 -13
7 -20 20 -20 25 0 27 -20 3 -21 -17 -1 -17 -2 0 -6 9 -2 17 -9 17 -14 0 -18
-19 -8 -40 21 -36 51 -98 28 -85 -32 6 -27 -5 -40 -157 -194 -109 -111 -164
-160 -166 -149 -3 15 17 40 162 200 56 61 69 82 68 107 -1 36 45 96 88 114 35
15 45 42 24 65 -10 11 -21 19 -26 19 -15 0 -49 -41 -42 -51 6 -11 -33 -59 -48
-59 -4 0 -8 18 -8 40 0 35 5 43 47 75 49 37 80 42 75 12z m38 13 c0 -5 -4 -10
-10 -10 -5 0 -10 5 -10 10 0 6 5 10 10 10 6 0 10 -4 10 -10z m40 0 c0 -5 -4
-10 -10 -10 -5 0 -10 5 -10 10 0 6 5 10 10 10 6 0 10 -4 10 -10z m-857 -7 c4
-3 -1 -15 -10 -25 -26 -29 -7 -72 34 -76 24 -2 42 -15 74 -53 22 -27 46 -49
52 -49 13 0 77 -60 77 -72 0 -4 -22 -8 -48 -8 l-49 0 -87 101 c-58 66 -89 110
-91 130 -3 20 0 29 10 29 21 0 19 18 -2 23 -12 3 -9 5 8 6 14 0 29 -2 32 -6z
m477 -23 c0 -10 -12 -28 -27 -40 l-28 -22 -3 21 c-4 25 28 70 45 64 7 -3 13
-13 13 -23z m406 -17 c-10 -10 -19 5 -10 18 6 11 8 11 12 0 2 -7 1 -15 -2 -18z
m-1146 7 c0 -5 -4 -10 -10 -10 -5 0 -10 5 -10 10 0 6 5 10 10 10 6 0 10 -4 10
-10z m150 0 c0 -5 -4 -10 -10 -10 -5 0 -10 5 -10 10 0 6 5 10 10 10 6 0 10 -4
10 -10z m690 0 c0 -5 -4 -10 -10 -10 -5 0 -10 5 -10 10 0 6 5 10 10 10 6 0 10
-4 10 -10z m280 0 c0 -5 -4 -10 -10 -10 -5 0 -10 5 -10 10 0 6 5 10 10 10 6 0
10 -4 10 -10z m-813 -34 c-4 -9 -11 -16 -17 -16 -17 0 -24 31 -9 41 18 11 34
-5 26 -25z m64 11 c-1 -12 -15 -9 -19 4 -3 6 1 10 8 8 6 -3 11 -8 11 -12z
m659 -18 c0 -5 -7 -9 -15 -9 -15 0 -20 12 -9 23 8 8 24 -1 24 -14z m-990 1 c0
-5 -4 -10 -10 -10 -5 0 -10 5 -10 10 0 6 5 10 10 10 6 0 10 -4 10 -10z m70 0
c0 -5 -2 -10 -4 -10 -3 0 -8 5 -11 10 -3 6 -1 10 4 10 6 0 11 -4 11 -10z
m1040 6 c0 -3 -4 -8 -10 -11 -5 -3 -10 -1 -10 4 0 6 5 11 10 11 6 0 10 -2 10
-4z m-1075 -36 c3 -5 1 -10 -4 -10 -6 0 -11 5 -11 10 0 6 2 10 4 10 3 0 8 -4
11 -10z m79 1 c3 -5 14 -7 24 -4 13 3 28 -7 48 -32 16 -20 48 -58 72 -84 23
-26 42 -51 42 -55 0 -3 -40 -6 -90 -6 l-89 0 -16 31 c-14 25 -21 30 -47 27
-20 -2 -33 2 -36 11 -3 8 0 11 6 7 5 -3 23 -3 39 0 29 6 30 7 27 60 -3 49 6
68 20 45z m996 -1 c0 -5 -4 -10 -10 -10 -5 0 -10 5 -10 10 0 6 5 10 10 10 6 0
10 -4 10 -10z m-1220 -4 c0 -3 -4 -8 -10 -11 -5 -3 -10 -1 -10 4 0 6 5 11 10
11 6 0 10 -2 10 -4z m939 -82 c-18 -19 -36 -34 -40 -34 -17 0 3 52 33 85 l33
37 3 -27 c3 -20 -5 -36 -29 -61z m-829 46 c0 -5 -4 -10 -10 -10 -5 0 -10 5
-10 10 0 6 5 10 10 10 6 0 10 -4 10 -10z m80 0 c0 -5 -4 -10 -10 -10 -5 0 -10
5 -10 10 0 6 5 10 10 10 6 0 10 -4 10 -10z m1070 6 c0 -3 -4 -8 -10 -11 -5 -3
-10 -1 -10 4 0 6 5 11 10 11 6 0 10 -2 10 -4z m-424 -17 c10 -17 -13 -36 -27
-22 -12 12 -4 33 11 33 5 0 12 -5 16 -11z m-188 -16 c-2 -10 -10 -18 -18 -18
-8 0 -16 8 -18 18 -2 12 3 17 18 17 15 0 20 -5 18 -17z m512 -3 c0 -13 -7 -20
-20 -20 -13 0 -20 7 -20 20 0 13 7 20 20 20 13 0 20 -7 20 -20z m100 0 c0 -5
-4 -10 -10 -10 -5 0 -10 5 -10 10 0 6 5 10 10 10 6 0 10 -4 10 -10z m40 -41
c0 -5 -4 -9 -10 -9 -5 0 -10 7 -10 16 0 8 5 12 10 9 6 -3 10 -10 10 -16z
m-120 -13 c0 -16 -7 -26 -21 -29 -14 -4 -20 -11 -16 -21 10 -26 -38 -66 -80
-66 l-36 0 40 43 c22 24 44 50 49 58 7 11 42 33 62 38 1 1 2 -10 2 -23z m40
14 c0 -5 -4 -10 -10 -10 -5 0 -10 5 -10 10 0 6 5 10 10 10 6 0 10 -4 10 -10z
m40 0 c0 -5 -4 -10 -10 -10 -5 0 -10 5 -10 10 0 6 5 10 10 10 6 0 10 -4 10
-10z m-388 -132 c-99 -100 -112 -110 -112 -86 0 20 22 47 103 122 143 133 150
107 9 -36z m348 102 c0 -5 -5 -10 -11 -10 -5 0 -7 5 -4 10 3 6 8 10 11 10 2 0
4 -4 4 -10z m35 0 c3 -5 1 -10 -4 -10 -6 0 -11 5 -11 10 0 6 2 10 4 10 3 0 8
-4 11 -10z m40 0 c3 -5 1 -10 -4 -10 -6 0 -11 5 -11 10 0 6 2 10 4 10 3 0 8
-4 11 -10z m45 0 c0 -5 -4 -10 -10 -10 -5 0 -10 5 -10 10 0 6 5 10 10 10 6 0
10 -4 10 -10z m-1150 -30 c0 -21 -15 -27 -25 -10 -7 12 2 30 16 30 5 0 9 -9 9
-20z m1190 2 c0 -13 -12 -22 -22 -16 -10 6 -1 24 13 24 5 0 9 -4 9 -8z m-160
-12 c0 -5 -4 -10 -10 -10 -5 0 -10 5 -10 10 0 6 5 10 10 10 6 0 10 -4 10 -10z
m40 0 c0 -5 -4 -10 -10 -10 -5 0 -10 5 -10 10 0 6 5 10 10 10 6 0 10 -4 10
-10z m40 0 c0 -5 -4 -10 -10 -10 -5 0 -10 5 -10 10 0 6 5 10 10 10 6 0 10 -4
10 -10z m-705 -28 c6 -4 31 -30 58 -59 35 -39 47 -60 47 -83 0 -18 -4 -30 -8
-28 -4 2 -43 40 -85 85 -63 65 -75 82 -60 86 28 7 37 7 48 -1z m740 -2 c3 -5
1 -10 -4 -10 -6 0 -11 5 -11 10 0 6 2 10 4 10 3 0 8 -4 11 -10z m245 6 c0 -3
-4 -8 -10 -11 -5 -3 -10 -1 -10 4 0 6 5 11 10 11 6 0 10 -2 10 -4z m-1470 -10
c0 -3 -4 -8 -10 -11 -5 -3 -10 -1 -10 4 0 6 5 11 10 11 6 0 10 -2 10 -4z m378
-18 c3 -16 -8 -18 -127 -18 -76 0 -132 4 -136 10 -3 6 -18 10 -33 10 -15 0
-32 4 -39 8 -6 4 66 7 160 7 156 0 172 -2 175 -17z m722 13 c0 -5 3 -16 6 -25
10 -26 -12 -18 -24 9 -10 21 -9 25 3 25 8 0 15 -4 15 -9z m167 3 c-3 -3 -12
-4 -19 -1 -8 3 -5 6 6 6 11 1 17 -2 13 -5z m-212 -25 c10 -15 -1 -23 -20 -15
-9 3 -13 10 -10 16 8 13 22 13 30 -1z m95 -9 c0 -5 -4 -10 -10 -10 -5 0 -10 5
-10 10 0 6 5 10 10 10 6 0 10 -4 10 -10z m80 6 c0 -3 -4 -8 -10 -11 -5 -3 -10
-1 -10 4 0 6 5 11 10 11 6 0 10 -2 10 -4z m37 -2 c-3 -3 -12 -4 -19 -1 -8 3
-5 6 6 6 11 1 17 -2 13 -5z m73 -4 c0 -5 -2 -10 -4 -10 -3 0 -8 5 -11 10 -3 6
-1 10 4 10 6 0 11 -4 11 -10z m-283 -34 c17 5 20 2 16 -19 -3 -14 -14 -27 -24
-30 -13 -3 -19 -15 -20 -34 -1 -16 -3 -21 -6 -10 -2 9 -9 17 -14 17 -5 0 -3
10 6 23 13 21 13 25 -1 46 -16 22 -16 23 3 13 11 -6 29 -9 40 -6z m-697 0 c0
-3 -4 -8 -10 -11 -5 -3 -10 -1 -10 4 0 6 5 11 10 11 6 0 10 -2 10 -4z m610 -4
c0 -17 -25 -32 -52 -32 -31 0 -37 -14 -12 -28 16 -9 -1 -23 -85 -69 -13 -7
-39 -27 -58 -43 -18 -17 -38 -30 -43 -30 -26 0 -2 37 76 120 83 86 88 90 130
90 24 0 44 -4 44 -8z m220 -2 c0 -5 -4 -10 -10 -10 -5 0 -10 5 -10 10 0 6 5
10 10 10 6 0 10 -4 10 -10z m40 6 c0 -3 -4 -8 -10 -11 -5 -3 -10 -1 -10 4 0 6
5 11 10 11 6 0 10 -2 10 -4z m-230 -32 c0 -8 -4 -12 -10 -9 -5 3 -10 10 -10
16 0 5 5 9 10 9 6 0 10 -7 10 -16z m150 -4 c0 -5 -4 -10 -10 -10 -5 0 -10 5
-10 10 0 6 5 10 10 10 6 0 10 -4 10 -10z m40 0 c0 -5 -4 -10 -10 -10 -5 0 -10
5 -10 10 0 6 5 10 10 10 6 0 10 -4 10 -10z m-40 -40 c0 -5 -4 -10 -10 -10 -5
0 -10 5 -10 10 0 6 5 10 10 10 6 0 10 -4 10 -10z m40 0 c0 -5 -4 -10 -10 -10
-5 0 -10 5 -10 10 0 6 5 10 10 10 6 0 10 -4 10 -10z m-40 -30 c0 -5 -4 -10
-10 -10 -5 0 -10 5 -10 10 0 6 5 10 10 10 6 0 10 -4 10 -10z m35 0 c3 -5 1
-10 -4 -10 -6 0 -11 5 -11 10 0 6 2 10 4 10 3 0 8 -4 11 -10z m-180 -30 c7
-12 -12 -50 -26 -50 -13 0 -22 27 -15 45 6 17 32 20 41 5z m145 -44 c0 -3 -4
-8 -10 -11 -5 -3 -10 -1 -10 4 0 6 5 11 10 11 6 0 10 -2 10 -4z m-103 -112 c7
-18 -17 -38 -31 -24 -11 11 -1 40 14 40 6 0 13 -7 17 -16z m-323 -203 c9 -13
-22 -22 -51 -15 -18 5 -21 9 -11 15 17 11 55 11 62 0z m166 -1 c24 -8 24 -8
-7 -9 -17 -1 -35 4 -38 9 -7 11 9 11 45 0z m-46 -110 c14 -5 26 -15 26 -21 0
-16 -30 -49 -43 -49 -6 0 -3 6 8 13 11 9 15 19 10 27 -11 18 -106 4 -123 -18
-12 -15 -13 -15 -10 7 5 38 80 61 132 41z m-57 -232 c-3 -8 -6 -5 -6 6 -1 11
2 17 5 13 3 -3 4 -12 1 -19z m20 -75 c-14 -14 -19 -15 -29 -4 -9 9 -9 12 -1 7
6 -3 14 -2 18 4 3 5 11 10 18 10 6 0 4 -7 -6 -17z"/>
<path d="M2595 3460 c-3 -5 -1 -10 4 -10 6 0 11 5 11 10 0 6 -2 10 -4 10 -3 0
-8 -4 -11 -10z"/>
<path d="M2787 3395 c-4 -8 -2 -17 3 -20 6 -4 10 3 10 14 0 25 -6 27 -13 6z"/>
<path d="M2436 3294 c-30 -30 -13 -74 29 -74 27 0 45 18 45 45 0 42 -44 59
-74 29z m44 -28 c0 -8 -4 -17 -9 -21 -12 -7 -24 12 -16 25 9 15 25 12 25 -4z"/>
<path d="M2658 1873 c6 -2 18 -2 25 0 6 3 1 5 -13 5 -14 0 -19 -2 -12 -5z"/>
<path d="M4170 2851 c0 -15 9 -22 43 -29 47 -10 57 -7 57 13 0 14 -10 19 -67
30 -29 6 -33 4 -33 -14z"/>
<path d="M4106 2584 c-8 -20 -11 -18 46 -31 39 -8 48 -8 53 5 8 21 -3 29 -51
37 -34 5 -43 3 -48 -11z"/>
<path d="M1437 4599 c-9 -6 -28 -32 -42 -59 -22 -43 -24 -58 -19 -107 7 -60
35 -113 59 -113 9 0 16 19 21 56 6 50 10 58 45 80 47 29 62 56 54 95 -11 50
-72 75 -118 48z"/>
<path d="M3219 4589 c-10 -6 -10 -9 -2 -9 7 0 10 -7 7 -17 -5 -15 -4 -16 5 -3
10 13 19 7 57 -35 25 -27 41 -41 35 -29 -19 40 -88 102 -102 93z"/>
<path d="M3131 4569 c-68 -13 -73 -19 -11 -13 51 6 110 25 70 23 -8 -1 -35 -5
-59 -10z"/>
<path d="M2468 4375 c-37 -35 -38 -36 -38 -110 l0 -75 40 0 40 0 0 110 c0 61
-1 110 -2 110 -2 0 -20 -16 -40 -35z"/>
<path d="M2016 4380 c-3 -14 -10 -52 -16 -85 -20 -106 -16 -103 -71 -49 -28
27 -49 42 -49 34 0 -37 -44 -200 -54 -200 -6 1 -27 21 -46 45 -19 25 -38 41
-41 37 -4 -4 -21 -54 -39 -111 l-32 -104 21 -20 c17 -18 22 -19 38 -6 113 90
403 343 403 352 0 7 -25 39 -54 72 -52 57 -54 59 -60 35z"/>
<path d="M2560 4282 l0 -92 40 0 40 0 0 79 c0 75 -1 79 -20 74 -12 -3 -29 2
-40 12 -20 18 -20 17 -20 -73z"/>
<path d="M1448 4263 l-26 -28 107 -137 c58 -75 109 -137 113 -138 6 0 21 36
38 92 8 25 0 37 -87 133 -52 58 -100 105 -107 105 -7 0 -24 -12 -38 -27z"/>
<path d="M2338 4263 c-14 -16 -28 -38 -31 -50 -5 -21 -2 -23 34 -23 l39 0 0
50 c0 28 -4 50 -8 50 -5 0 -20 -12 -34 -27z"/>
<path d="M1943 4074 c-192 -163 -210 -180 -196 -196 8 -9 13 -27 12 -40 -2
-14 11 -42 35 -75 l39 -51 116 117 c83 84 148 139 226 190 61 41 112 78 114
83 2 5 -6 18 -18 29 -12 11 -21 24 -21 29 0 6 -6 10 -12 10 -7 0 -28 18 -48
41 l-35 41 -212 -178z m227 -24 l-35 -29 -33 34 -32 35 32 30 33 29 35 -34 34
-35 -34 -30z m-131 -51 l23 -31 -33 -35 -34 -34 -27 31 c-35 38 -35 53 -2 79
36 28 46 27 73 -10z m-144 -106 c32 -37 31 -47 -7 -77 l-33 -25 -27 26 c-16
15 -28 31 -28 37 0 8 58 64 68 66 2 0 14 -12 27 -27z"/>
<path d="M856 3564 c-57 -49 -66 -61 -66 -90 0 -36 28 -74 56 -74 8 0 22 -16
30 -35 8 -20 26 -41 39 -47 14 -6 31 -21 39 -33 8 -13 27 -25 43 -28 15 -3 38
-8 49 -12 27 -8 41 21 20 44 -7 9 -17 26 -20 38 -4 11 -13 24 -21 27 -9 3 -15
18 -15 35 0 16 -5 33 -11 37 -7 4 1 17 20 35 35 31 39 64 16 109 -36 70 -92
68 -179 -6z"/>
<path d="M4500 3450 c0 -18 37 -85 65 -119 30 -35 32 -33 -62 -51 -34 -6 -86
-18 -115 -26 -41 -13 -49 -18 -35 -25 11 -6 51 -2 119 12 57 12 118 24 137 28
31 5 57 31 32 31 -5 0 -38 36 -71 80 -61 80 -70 89 -70 70z"/>
<path d="M1166 3308 c-12 -75 -26 -178 -26 -192 0 -19 49 -22 54 -3 7 24 29
208 25 211 -2 2 -14 7 -26 10 -19 6 -23 3 -27 -26z"/>
<path d="M4700 3299 l-45 -19 50 6 c88 10 109 15 94 25 -21 13 -49 10 -99 -12z"/>
<path d="M4592 3184 c-38 -85 -37 -108 1 -42 22 37 46 118 36 118 -2 0 -19
-34 -37 -76z"/>
<path d="M1278 2963 c-14 -16 -33 -43 -42 -60 -9 -18 -21 -33 -27 -33 -6 0 -4
-7 4 -15 9 -8 23 -37 32 -65 9 -27 19 -50 22 -50 8 0 -9 64 -23 85 -21 30 -17
47 26 105 22 29 40 55 40 57 0 7 -8 1 -32 -24z"/>
<path d="M4370 2904 c0 -8 -4 -13 -8 -10 -9 5 -104 -383 -108 -437 l-2 -28 45
42 c25 23 61 59 81 81 34 37 34 39 14 45 -23 6 -26 20 -15 73 3 20 13 35 25
37 10 3 18 6 18 7 0 2 -11 36 -25 76 -26 77 -31 105 -16 96 5 -4 7 3 4 14 -6
24 -13 26 -13 4z m30 -317 c0 -1 -33 -34 -72 -72 l-73 -70 70 73 c64 67 75 77
75 69z"/>
<path d="M1100 2870 c36 -12 72 -12 65 0 -3 6 -25 10 -48 9 -36 -1 -38 -2 -17
-9z"/>
<path d="M1390 2849 c47 -4 113 -10 148 -13 52 -6 62 -4 62 9 0 13 -21 15
-147 14 -142 -2 -144 -2 -63 -10z"/>
<path d="M4390 2675 c0 -18 8 -28 26 -35 33 -13 34 -13 34 5 0 8 -9 15 -19 15
-11 0 -23 5 -26 10 -3 6 3 10 14 10 37 0 51 -11 51 -42 0 -30 -1 -30 -37 -25
-20 4 -40 12 -45 19 -6 10 -8 9 -8 -4 0 -10 13 -19 38 -25 20 -5 36 -15 35
-21 -2 -7 -1 -12 2 -12 12 0 95 43 95 49 0 3 -11 23 -25 44 -25 35 -45 48 -45
27 0 -5 -6 -8 -12 -6 -7 3 -28 7 -45 10 -30 5 -33 3 -33 -19z"/>
<path d="M1621 2136 c-28 -45 -27 -51 15 -75 41 -24 54 -19 74 30 11 27 10 32
-10 54 -32 34 -54 31 -79 -9z"/>
<path d="M4270 2081 c-14 -3 -25 -11 -25 -18 0 -13 -182 -153 -199 -153 -6 0
-33 16 -60 35 -28 20 -54 31 -61 27 -49 -29 -174 -129 -175 -139 0 -22 14 -15
98 47 45 33 84 60 87 60 3 0 27 -16 54 -35 26 -19 52 -35 57 -35 5 0 56 36
114 80 78 58 108 76 117 68 7 -6 13 -8 13 -5 0 2 7 21 15 41 16 39 15 40 -35
27z"/>
<path d="M1852 2014 c-23 -14 -42 -28 -42 -32 0 -4 9 -22 20 -39 15 -25 27
-33 48 -33 53 0 66 38 34 97 l-17 32 -43 -25z"/>
<path d="M1561 1857 c30 -57 46 -67 107 -67 l32 0 0 55 0 55 -69 0 c-38 0 -76
3 -85 6 -10 4 -6 -11 15 -49z"/>
<path d="M349 1366 c-103 -37 -150 -93 -154 -184 -1 -31 -10 -85 -19 -120 -21
-75 -18 -100 12 -120 22 -14 22 -14 22 42 0 95 46 187 123 244 42 30 56 28 19
-3 -17 -14 -45 -48 -63 -76 -38 -60 -32 -69 49 -69 71 0 112 23 197 110 39 40
83 80 98 90 l29 18 -34 26 c-71 53 -195 72 -279 42z"/>
<path d="M1210 1295 c-152 -43 -250 -168 -250 -318 0 -140 63 -245 185 -307
62 -32 75 -35 154 -35 72 0 95 5 144 27 31 15 57 29 57 31 0 3 -16 30 -35 62
-19 32 -36 62 -37 67 -2 6 -19 1 -38 -11 -42 -25 -127 -28 -169 -7 -34 18 -91
81 -91 101 0 12 23 15 118 17 l117 3 0 40 0 40 -117 3 c-131 3 -136 6 -98 66
45 73 155 99 238 57 l42 -21 15 35 c8 20 24 49 35 66 12 16 19 33 15 38 -10
17 -116 51 -174 56 -34 3 -77 -1 -111 -10z"/>
<path d="M1793 1289 c-266 -52 -371 -358 -191 -554 29 -33 72 -65 106 -82 49
-23 70 -27 147 -28 79 0 97 3 148 28 l58 29 -21 31 c-12 18 -29 48 -38 67 -9
19 -17 36 -18 38 -1 2 -18 -7 -37 -18 -44 -26 -131 -29 -176 -6 -54 28 -85 80
-89 151 -7 114 51 185 157 193 52 4 81 -4 144 -36 4 -2 7 3 7 10 0 8 15 38 34
68 l35 55 -37 19 c-40 21 -135 46 -167 45 -11 -1 -39 -5 -62 -10z"/>
<path d="M2249 1271 c-86 -34 -147 -95 -184 -183 l-15 -38 88 0 c83 0 89 2
101 24 20 36 85 68 140 68 136 0 220 -139 162 -268 -53 -117 -236 -134 -305
-29 -15 23 -22 25 -101 25 l-84 0 15 -44 c23 -66 84 -130 162 -168 60 -30 75
-33 152 -33 72 1 95 5 147 29 80 37 143 103 172 182 30 78 26 206 -8 272 -31
61 -94 120 -160 150 -75 35 -212 42 -282 13z"/>
<path d="M2946 1173 c25 -60 84 -201 132 -315 l87 -208 105 0 105 0 125 297
c69 163 128 304 132 315 7 17 0 18 -96 18 l-104 0 -72 -175 c-40 -97 -76 -178
-80 -180 -4 -3 -41 76 -81 175 l-73 180 -113 0 -112 0 45 -107z"/>
<path d="M3670 965 l0 -315 105 0 105 0 0 315 0 315 -105 0 -105 0 0 -315z"/>
<path d="M3940 1200 l0 -80 90 0 90 0 0 -235 0 -235 105 0 105 0 0 235 0 235
95 0 95 0 0 80 0 80 -290 0 -290 0 0 -80z"/>
<path d="M4741 1253 c-32 -68 -261 -595 -261 -599 0 -2 49 -4 108 -4 l108 0
19 55 18 55 122 0 122 0 20 -52 20 -53 112 -3 c62 -1 111 1 108 5 -2 4 -64
146 -137 316 l-134 307 -106 0 c-107 0 -107 0 -119 -27z m148 -263 c30 -79 29
-80 -34 -80 -30 0 -55 4 -55 10 0 23 53 141 61 133 4 -4 17 -33 28 -63z"/>
<path d="M5280 965 l0 -315 250 0 250 0 0 80 0 79 -142 3 -143 3 -3 233 -2
232 -105 0 -105 0 0 -315z"/>
<path d="M557 1143 c-12 -12 -7 -22 15 -29 33 -10 117 -93 140 -138 11 -21 22
-64 24 -95 l4 -56 -13 45 c-20 66 -55 130 -72 130 -8 0 -27 -19 -42 -42 -38
-57 -38 -149 0 -266 15 -46 27 -94 27 -108 0 -22 3 -24 23 -18 44 14 109 67
138 113 88 138 74 286 -32 338 -26 12 -54 34 -63 48 -36 54 -126 102 -149 78z"/>
<path d="M1830 1023 c-56 -20 -68 -87 -23 -123 31 -24 65 -20 100 12 21 19 30
20 214 15 162 -5 194 -9 210 -23 11 -10 33 -17 49 -17 66 0 93 71 45 118 -31
32 -56 31 -93 0 -30 -25 -32 -25 -222 -25 -176 0 -193 2 -208 19 -19 22 -50
32 -72 24z"/>
<path d="M4 896 c-9 -38 4 -113 30 -172 47 -104 146 -170 242 -162 36 3 62 12
77 25 12 12 42 24 67 28 54 9 130 43 137 62 3 7 3 19 0 27 -4 11 -17 8 -62
-15 -30 -15 -75 -31 -99 -34 -54 -9 -148 10 -178 35 -23 19 -23 19 26 5 27 -8
71 -15 99 -15 49 0 49 0 42 28 -21 88 -80 132 -230 170 -60 16 -118 32 -127
36 -13 6 -19 2 -24 -18z"/>
</g>
</svg>
